<?xml version="1.0" encoding="UTF-8" standalone="no"?>
<svg
   height="619.92029"
   viewBox="-287.64246 -360.56965 217.60137 185.41846"
   width="727.51929"
   version="1.1"
   id="svg24"
   sodipodi:docname="bsnl.svg"
   inkscape:version="1.2 (dc2aedaf03, 2022-05-15)"
   xmlns:inkscape="http://www.inkscape.org/namespaces/inkscape"
   xmlns:sodipodi="http://sodipodi.sourceforge.net/DTD/sodipodi-0.dtd"
   xmlns="http://www.w3.org/2000/svg"
   xmlns:svg="http://www.w3.org/2000/svg">
  <defs
     id="defs28" />
  <sodipodi:namedview
     id="namedview26"
     pagecolor="#ffffff"
     bordercolor="#000000"
     borderopacity="0.25"
     inkscape:showpageshadow="2"
     inkscape:pageopacity="0.0"
     inkscape:pagecheckerboard="0"
     inkscape:deskcolor="#d1d1d1"
     showgrid="false"
     inkscape:zoom="0.3304"
     inkscape:cx="275.42373"
     inkscape:cy="270.88378"
     inkscape:window-width="1920"
     inkscape:window-height="1013"
     inkscape:window-x="-9"
     inkscape:window-y="29"
     inkscape:window-maximized="1"
     inkscape:current-layer="svg24" />
  <path
     d="m -92.52611,-358.1707 c 5.75,-2.13 12.49,-3.7 18.279997,-0.86 3.44,2.23 3.98,6.77 4.15,10.52 0.55,8.56 -3.11,16.62 -7.079997,23.97 -7.34,12.99 -16.64,24.73 -26.24001,36.09 -13.39,16.03 -26.81,32.05 -40.75,47.61 -2.57,3.08 -5.55,5.81 -7.92,9.06 4.88,5.24 9.77,10.48 14.41,15.92 -16.28,0.08 -32.56,0.09 -48.84,0 -0.44,-16.61 -0.71,-33.22 -0.78,-49.82 6.87,4.7 12.26,11.4 19.19,15.91 10.94,-7.82 20.96,-16.9 31.05,-25.79 9.41,-8.68 18.9,-17.31 27.55,-26.76 9.32,-9.74 18.37001,-19.9 25.34001,-31.5 2.16,-3.91 4.33,-8.17 4.19,-12.75 0.08,-2.67 -2.15,-5.24 -4.85,-5.26 -5.87,-0.22 -11.61,1.42 -17.16001,3.15 -10.18,3.41 -19.87,8.2 -29.02,13.81 1.19,-1.43 2.59,-2.66 4.14,-3.7 10.76,-7.61 21.95,-14.91 34.34001,-19.6 z"
     fill="#0161b0"
     id="path16"
     sodipodi:nodetypes="cccccccccccccccccccc" />
  <path
     d="m -217.48612,-338.0107 c 18.38,-10.21 40.98,-12.24 60.98,-5.92 19.36,5.88 35.99,19.76 45.76,37.42 0.61,1.31 1.63,2.66 1.24,4.19 -8.65,9.45 -18.14,18.08 -27.55,26.76 -10.09,8.89 -20.11,17.97 -31.05,25.79 -6.93,-4.51 -12.32,-11.21 -19.19,-15.91 0.07,16.6 0.34,33.21 0.78,49.82 16.28,0.09 32.56,0.08 48.84,0 -4.64,-5.44 -9.53,-10.68 -14.41,-15.92 2.37,-3.25 5.35,-5.98 7.92,-9.06 13.94,-15.56 27.36,-31.58 40.75,-47.61 2.55,11.78 3.35,24.1 0.68,35.93 -4.07,19.86 -16.13,37.95 -32.97,49.25 -13.73,9.37 -30.53,14.25 -47.15,13.5 -14.65,-0.04 -28.71,-5.48 -41.11,-12.97 l -0.24,-0.22 c -0.35,-0.35 -0.71,-0.67 -1.09,-0.97 -10.1,-6.97 -18.18,-16.48 -24.37,-27.03 16.31803,-18.11364 33.89151,-35.05556 52.59,-50.7 2.4,-1.88 4.65,-4 7.32,-5.53 1.16,0.02 1.87,1.13 2.71,1.78 4.65,4.62 9.24,9.31 13.89,13.93 0.83,-15.32 0.23,-30.67 0.31,-46 l -0.92,-1.16 c -12.67,-0.4 -25.38,0.02 -38.06,-0.17 -2.73,0 -5.59,-0.33 -8.15,0.84 5.63,4.92 10.79,10.36 15.92,15.8 -17.29612,18.08503 -33.94655,36.77674 -49.92,56.04 l -1.13,0.32 c -1.23,-1.65 -1.59,-3.69 -2.03,-5.64 -3.58,-16.67 -1.86,-34.54 5.35,-50.03 7.05,-15.47 19.24,-28.59 34.3,-36.53 z"
     fill="#bcbdc1"
     id="path18"
     sodipodi:nodetypes="ccccccccccccccccccccccccccccccccc" />
  <path
     d="m -219.97612,-317.9707 c 2.56,-1.17 5.42,-0.84 8.15,-0.84 12.68,0.19 25.39,-0.23 38.06,0.17 l 0.92,1.16 c -0.08,15.33 0.52,30.68 -0.31,46 -4.65,-4.62 -9.24,-9.31 -13.89,-13.93 -0.84,-0.65 -1.55,-1.76 -2.71,-1.78 -2.67,1.53 -4.92,3.65 -7.32,5.53 -18.69849,15.64444 -36.27197,32.58636 -52.59,50.7 -8.71,10.1 -17.52,20.42 -23.3,32.54 -1.56,3.7 -3.45,8.31 -1.13,12.07 2.95,3.52 8.18,2.98 12.2,2.11 8.09,-2.14 15.26,-6.65 22.52,-10.65 4.8,-2.85 9.82,-5.4 14.08,-9.04 0.38,0.3 0.74,0.62 1.09,0.97 -4.33,2.06 -7.72,5.53 -11.66,8.19 -9.41,6.59 -19.04,13.11 -29.76,17.4 -4.94,1.92 -10.65,3.32 -15.72,1.04 -3.67,-1.94 -6.07,-6.01 -6.21,-10.14 -0.66,-7.2 2.58,-13.93 5.75,-20.16 7.01,-13.08 15.99,-24.98 25.33,-36.46 0.69575,-0.76505 1.16945,-1.70553 1.37,-2.72 l 1.13,-0.32 c 15.96,-19.25 32.63,-37.96 49.92,-56.04 -5.13,-5.44 -10.29,-10.88 -15.92,-15.8 z"
     fill="#db1920"
     id="path20"
     sodipodi:nodetypes="ccccccccccccccccccccccccc" />
</svg>
