<?xml version="1.0" encoding="UTF-8"?>
<svg width="34px" height="12px" viewBox="0 0 34 12" version="1.1" xmlns="http://www.w3.org/2000/svg" xmlns:xlink="http://www.w3.org/1999/xlink">
    <!-- Generator: Sketch 39.1 (31720) - http://www.bohemiancoding.com/sketch -->
    <title>mastercard-securecode</title>
    <desc>Created with Sketch.</desc>
    <defs></defs>
    <g id="Page-1" stroke="none" stroke-width="1" fill="none" fill-rule="evenodd">
        <g id="icon" transform="translate(-126.000000, -258.000000)">
            <g id="old-icon">
                <g id="mastercard-securecode" transform="translate(126.000000, 258.000000)">
                    <g id="Page-1">
                        <g id="Fill-1-+-Fill-12">
                            <path d="M3.11500386,7.7707722 C2.91953668,7.63976062 2.65488803,7.52542085 2.28088803,7.52542085 C1.8770888,7.52542085 1.55218533,7.60917374 1.55218533,8.03896525 C1.55218533,8.79746719 3.02442471,8.5143089 3.02442471,10.1385637 C3.02442471,11.618417 2.05260231,12.0021312 1.17359073,12.0021312 C0.782525097,12.0021312 0.332779923,11.8725637 0.00105019305,11.7254054 L0.239837838,10.6377992 C0.439768339,10.8198764 0.843567567,10.944193 1.17359073,10.944193 C1.48825483,10.944193 1.98118919,10.858471 1.98118919,10.3092201 C1.98118919,9.44963709 0.509737452,9.76942085 0.509737452,8.26055599 C0.509737452,6.88047104 1.36932046,6.4670888 2.19831661,6.4670888 C2.66525869,6.4670888 3.10397683,6.53548263 3.36114285,6.70653282 L3.11500386,7.7707722 L3.11500386,7.7707722 Z M6.07142857,11.8191352 C5.73169112,11.9366255 5.40074903,11.9930734 5.04827799,11.9930734 C3.93297298,11.9930734 3.3507722,11.33539 3.3507722,10.0806718 C3.3507722,8.61538997 4.09142085,7.53434749 5.09658688,7.53434749 C5.91980695,7.53434749 6.4447722,8.13847104 6.4447722,9.08745175 C6.4447722,9.40106562 6.40906564,9.70837836 6.3234749,10.1411892 L4.33309653,10.1411892 C4.32705791,10.2051197 4.32482626,10.2367567 4.32482626,10.2740386 C4.32482626,10.7716989 4.62308108,11.0230888 5.20226255,11.0230888 C5.55919691,11.0230888 5.88186873,10.9397298 6.23945946,10.7524016 L6.07142857,11.8191352 L6.07142857,11.8191352 Z M5.51311969,9.27871815 C5.51745174,9.18840157 5.52047104,9.11659459 5.52047104,9.06145943 C5.52047104,8.71358299 5.34495753,8.50971431 5.04827799,8.50971431 C4.72928185,8.50971431 4.50257143,8.78394599 4.41120463,9.27412356 L5.51311969,9.27871815 L5.51311969,9.27871815 Z M8.99582242,11.8175599 C8.78985332,11.9166718 8.5147027,11.9821776 8.10880309,11.9821776 C7.23583011,11.9821776 6.69458688,11.109861 6.69458688,10.0474594 C6.69458688,8.65700384 7.47750579,7.54813127 8.62996143,7.54813127 C8.88135131,7.54813127 9.26506562,7.65669498 9.56765253,7.83220849 L9.34684939,8.85194599 C9.13261004,8.7109575 8.9095753,8.62182243 8.67984555,8.62182243 C8.14595367,8.62182243 7.76460231,9.11108107 7.76460231,9.98799232 C7.76460231,10.4927413 8.04106564,10.9070425 8.47833976,10.9070425 C8.73852513,10.9070425 8.9215212,10.8520386 9.14534363,10.7211583 L8.99582242,11.8175599 L8.99582242,11.8175599 Z M12.7313591,10.7484633 C12.6801621,11.1157683 12.6325097,11.4727027 12.6042857,11.8558919 L11.6428339,11.8558919 L11.7239614,11.1657838 L11.7142471,11.1657838 C11.4131043,11.6346949 11.1015907,11.9538224 10.5573282,11.9538224 C9.95346719,11.9538224 9.62633202,11.319112 9.62633202,10.4895907 C9.62633202,10.2036757 9.64418534,10.041946 9.70811579,9.59548263 L9.98024712,7.6190193 L11.0502626,7.6190193 L10.7632973,9.60138996 C10.7342857,9.81457914 10.6934594,10.025668 10.6934594,10.2458147 C10.6934594,10.4956293 10.8071428,10.7484633 11.0956834,10.7331043 C11.5342702,10.7331043 11.7931428,10.1967181 11.8667876,9.57067181 L12.1618919,7.6190193 L13.1976448,7.6190193 L12.7313591,10.7484633 L12.7313591,10.7484633 Z M15.4365251,7.57753668 C15.4059382,7.56900386 15.3710193,7.56545946 15.3338688,7.56545946 C15.0097529,7.56545946 14.8194054,7.75291892 14.5152433,8.26003089 L14.603722,7.61206178 L13.6995058,7.61206178 L13.0890811,11.8826718 L14.0876834,11.8826718 C14.4468494,9.27018534 14.5420231,8.82057147 15.0209112,8.82057147 C15.0491352,8.82057147 15.0520231,8.82057147 15.0936371,8.82555986 C15.1836911,8.30899614 15.3048572,7.93027027 15.472888,7.58488803 L15.4365251,7.57753668 L15.4365251,7.57753668 Z M17.9514749,11.8191352 C17.6108185,11.9366255 17.2792201,11.9930734 16.9280618,11.9930734 C15.8105251,11.9930734 15.229112,11.33539 15.229112,10.0806718 C15.229112,8.61538997 15.970417,7.53434749 16.9749266,7.53434749 C17.798278,7.53434749 18.3248185,8.13847104 18.3248185,9.08745175 C18.3248185,9.40106562 18.287668,9.70837836 18.1990579,10.1411892 L16.212749,10.1411892 C16.2068417,10.2051197 16.2031661,10.2367567 16.2031661,10.2740386 C16.2031661,10.7716989 16.5005019,11.0230888 17.079946,11.0230888 C17.4368803,11.0230888 17.7603398,10.9397298 18.1180618,10.7524016 L17.9514749,11.8191352 L17.9514749,11.8191352 Z M17.3900154,9.27871815 C17.3968417,9.18840157 17.4005174,9.11659459 17.4005174,9.06145943 C17.4005174,8.71358299 17.2235599,8.50971431 16.9280618,8.50971431 C16.6090656,8.50971431 16.3823552,8.78394599 16.2900695,9.27412356 L17.3900154,9.27871815 L17.3900154,9.27871815 Z M22.0499846,6.79579923 L21.886417,7.93342085 C21.5309266,7.73257143 21.2721853,7.64921236 20.9925715,7.64921236 C20.2453591,7.64921236 19.7232818,8.46232433 19.7232818,9.61779921 C19.7232818,10.4152896 20.0727336,10.8981158 20.6549344,10.8981158 C20.9033051,10.8981158 21.1747799,10.8133127 21.5048031,10.6274285 L21.3316525,11.8250425 C20.9621158,11.9389884 20.7204401,11.9782394 20.4460772,11.9782394 C19.3693668,11.9782394 18.6986873,11.1077606 18.6986873,9.71139764 C18.6986873,7.83220849 19.6244325,6.52064865 20.9503011,6.52064865 C21.1218764,6.52064865 21.2736293,6.54244016 21.3992587,6.57709653 L21.8081776,6.69301158 C21.9345946,6.7431583 21.9607181,6.75221621 22.0499846,6.79579923 L22.0499846,6.79579923 Z M24.0806641,9.44674904 C24.0806641,10.4147645 23.7808339,10.984888 23.3087722,10.984888 C22.9637838,10.9952587 22.7547954,10.6111506 22.7547954,10.0360386 C22.7547954,9.35643246 23.0604016,8.58611579 23.5503166,8.58611579 C23.9444016,8.58611579 24.0806641,9.00356754 24.0806641,9.44674904 L24.0806641,9.44674904 Z M25.1325637,9.46460236 C25.1325637,8.38841699 24.6010347,7.55115058 23.6016448,7.55115058 C22.4514209,7.55115058 21.7064401,8.56931274 21.7064401,10.0688572 C21.7064401,11.1420231 22.1466024,12.0199846 23.2357838,12.0199846 C24.3348108,12.0199846 25.1325637,11.2416602 25.1325637,9.46460236 L25.1325637,9.46460236 Z M28.4816293,11.8369884 L27.5380309,11.8369884 L27.586471,11.4200618 C27.3119769,11.7487722 27.0265869,11.8943552 26.6615135,11.8943552 C25.9334672,11.8943552 25.4531352,11.1884942 25.4531352,10.1209729 C25.4531352,8.70321239 26.1989035,7.50061003 27.0808031,7.50061003 C27.4696371,7.50061003 27.7648726,7.68439382 28.0377915,8.0889807 L28.257807,6.58759846 L29.2407876,6.58759846 L28.4816293,11.8369884 L28.4816293,11.8369884 Z M27.0049266,10.8327413 C27.4755444,10.8327413 27.7999228,10.2399073 27.7999228,9.39371431 C27.7999228,8.84945174 27.6145637,8.55749808 27.2711506,8.55749808 C26.8168108,8.55749808 26.4940077,9.15072583 26.4940077,9.99403089 C26.4940077,10.5501081 26.6674209,10.8327413 27.0049266,10.8327413 L27.0049266,10.8327413 Z M31.8893745,11.8191352 C31.5442548,11.9366255 31.2171197,11.9930734 30.8633359,11.9930734 C29.7478996,11.9930734 29.1641236,11.33539 29.1641236,10.0806718 C29.1641236,8.61538997 29.9070038,7.53434749 30.9115135,7.53434749 C31.7347336,7.53434749 32.2587799,8.13847104 32.2587799,9.08745175 C32.2587799,9.40106562 32.2247799,9.70837836 32.1363011,10.1411892 L30.1478919,10.1411892 C30.1411969,10.2051197 30.1397529,10.2367567 30.1397529,10.2740386 C30.1397529,10.7716989 30.4378764,11.0230888 31.0170579,11.0230888 C31.3747799,11.0230888 31.6967954,10.9397298 32.0551737,10.7524016 L31.8893745,11.8191352 L31.8893745,11.8191352 Z M31.3280463,9.27871815 C31.3325097,9.18840157 31.3353976,9.11659459 31.3353976,9.06145943 C31.3353976,8.71358299 31.1606718,8.50971431 30.8633359,8.50971431 C30.5443398,8.50971431 30.3181544,8.78394599 30.226,9.27412356 L31.3280463,9.27871815 L31.3280463,9.27871815 Z M32.886139,11.8040386 L32.7244092,11.8040386 L32.7244092,11.0960772 L32.4904788,11.0960772 L32.4904788,10.9439305 L33.1200695,10.9439305 L33.1200695,11.0960772 L32.886139,11.0960772 L32.886139,11.8040386 L32.886139,11.8040386 Z M33.9586487,11.8040386 L33.8076834,11.8040386 L33.8076834,11.0853127 L33.805583,11.0853127 L33.6610502,11.8040386 L33.5026024,11.8040386 L33.3614826,11.0853127 L33.359251,11.0853127 L33.359251,11.8040386 L33.2085483,11.8040386 L33.2085483,10.9439305 L33.4444479,10.9439305 L33.5845174,11.6220927 L33.5868803,11.6220927 L33.7247181,10.9439305 L33.9586487,10.9439305 L33.9586487,11.8040386 L33.9586487,11.8040386 L33.9586487,11.8040386 Z" id="Fill-1" fill="#EE9F2D"></path>
                            <path d="M4.49732046,5.41689575 L3.42888031,5.41689575 L4.04074903,1.38179151 L2.67339769,5.41689575 L1.9410193,5.41689575 L1.85254054,1.40555212 L1.20785328,5.41689575 L0.207019305,5.41689575 L1.04218533,0.165930502 L2.58203089,0.165930502 L2.62430116,3.4152278 L3.663861,0.165930502 L5.32566024,0.165930502 L4.49732046,5.41689575 L4.49732046,5.41689575 Z M7.25066409,3.51486487 C7.13776834,3.5014749 7.08788417,3.49648648 7.01135135,3.49648648 C6.40525869,3.49648648 6.09820849,3.71702702 6.09820849,4.14839382 C6.09820849,4.41409266 6.24917374,4.58356757 6.48271043,4.58356757 C6.91762162,4.58356757 7.23294209,4.14839382 7.25066409,3.51486487 L7.25066409,3.51486487 Z M8.02846332,5.41689575 L7.14288803,5.41689575 L7.16231661,4.97371428 C6.89228572,5.32710425 6.53167567,5.49119691 6.04162935,5.49119691 C5.46021621,5.49119691 5.06311197,5.01532819 5.06311197,4.32784556 C5.06311197,3.28526641 5.75702702,2.68009266 6.94295753,2.68009266 C7.06399228,2.68009266 7.21876448,2.68941312 7.37786873,2.71172973 C7.41134363,2.57047876 7.42027027,2.50956757 7.42027027,2.43474131 C7.42027027,2.1526332 7.2343861,2.04551352 6.73318147,2.04551352 C6.4305946,2.04551352 6.08337452,2.09172201 5.84393051,2.16759846 L5.69519691,2.21065637 L5.60146718,2.23835521 L5.74875675,1.28071043 C6.28264865,1.11464865 6.63433205,1.05071815 7.03064865,1.05071815 C7.94969884,1.05071815 8.43672587,1.48444788 8.43672587,2.30281081 C8.43672587,2.5154749 8.42110425,2.67313513 8.3482471,3.15005406 L8.12442471,4.66285715 L8.08793051,4.93603861 L8.06049421,5.15369112 L8.04185328,5.30242471 L8.02846332,5.41689575 L8.02846332,5.41689575 Z M8.79142853,2.49709653 C8.79142853,3.03597683 9.03966797,3.40879537 9.60191509,3.68735907 C10.0323629,3.90146718 10.1007567,3.96395366 10.1007567,4.15823938 C10.1007567,4.42341312 9.90962164,4.54641699 9.48875672,4.54641699 C9.17133586,4.54641699 8.87465637,4.49325097 8.53268726,4.3753668 L8.38461003,5.36031661 L8.43291892,5.37068726 L8.62930506,5.41230116 C8.6924479,5.42582239 8.78538996,5.43763707 8.90813124,5.45102702 C9.16319694,5.47491892 9.35866413,5.48620849 9.49702705,5.48620849 C10.619027,5.48620849 11.1380849,5.03318147 11.1380849,4.06057143 C11.1380849,3.47627027 10.9216139,3.13075675 10.3870656,2.87188417 C9.94099616,2.65922008 9.89032434,2.60920463 9.89032434,2.41084942 C9.89032434,2.17941312 10.0674131,2.06047876 10.4108263,2.06047876 C10.620471,2.06047876 10.9045483,2.08528957 11.1758919,2.12388417 L11.3284325,1.13788417 C11.0494749,1.09036293 10.6354363,1.05360618 10.3899537,1.05360618 C9.19955986,1.05360618 8.78696527,1.70905791 8.79142853,2.49709653 L8.79142853,2.49709653 Z M13.0072973,5.36477992 C12.7165251,5.46139769 12.4867954,5.50550579 12.24,5.50550579 C11.6941621,5.50550579 11.3960386,5.17298842 11.3960386,4.56623938 C11.3960386,4.44730502 11.4049653,4.31878764 11.4264942,4.18357529 L11.4926564,3.76717374 L11.5417529,3.42704247 L12.005807,0.513413127 L13.0689962,0.513413127 L12.9470425,1.14681081 L13.4943243,1.14681081 L13.3441467,2.18492664 L12.7983089,2.18492664 L12.515807,3.96697298 C12.5062239,4.04573745 12.4979537,4.10376062 12.4979537,4.14379923 C12.4979537,4.36250193 12.6095366,4.46016989 12.8623707,4.46016989 C12.9857683,4.46016989 13.0787104,4.44730502 13.1501236,4.4205251 L13.0072973,5.36477992 L13.0072973,5.36477992 Z M16.3949575,5.32710425 C16.0290965,5.44210038 15.6751815,5.50012355 15.2960618,5.49867954 C14.1033051,5.49867954 13.4801467,4.84230888 13.4801467,3.58719691 C13.4801467,2.11994594 14.2729112,1.03982239 15.350278,1.03982239 C16.2291583,1.03982239 16.7935058,1.64499614 16.7935058,2.59384556 C16.7935058,2.90811583 16.7555675,3.21437838 16.6603938,3.64718919 L14.5338842,3.64718919 C14.5249575,3.71203861 14.5233822,3.74183784 14.5233822,3.77951352 C14.5233822,4.27874903 14.841722,4.53000772 15.4639614,4.53000772 C15.845444,4.53000772 16.1889884,4.44730502 16.5733591,4.25840154 L16.3949575,5.32710425 L16.3949575,5.32710425 Z M15.7949035,2.78471815 C15.8008108,2.69545174 15.8023861,2.6225946 15.8023861,2.56850965 C15.8023861,2.21958301 15.614139,2.01584556 15.2960618,2.01584556 C14.9569807,2.01584556 14.7137298,2.28797683 14.6140927,2.78169884 L15.7949035,2.78471815 L15.7949035,2.78471815 Z M19.4103243,1.11162935 C19.3767181,1.10519691 19.3395675,1.10073359 19.3009729,1.10073359 C18.9486332,1.10073359 18.7492278,1.28714285 18.4220927,1.79583011 L18.5173976,1.14681081 L17.5484633,1.14681081 L16.8915675,5.41689575 L17.9663089,5.41689575 C18.3506795,2.80703475 18.4488726,2.35637065 18.9642548,2.35637065 C18.9953668,2.35637065 18.9983861,2.35637065 19.0422317,2.36083398 C19.1374054,1.84637065 19.2674981,1.46816989 19.4468185,1.12305019 L19.4103243,1.11162935 L19.4103243,1.11162935 Z M22.9599769,0.330942085 L22.785251,1.47000772 C22.4053436,1.26784556 22.1257298,1.18855599 21.8276062,1.18855599 C21.0312973,1.18855599 20.4683938,1.99799228 20.4683938,3.15346718 C20.4683938,3.9516139 20.8462008,4.43247104 21.4676525,4.43247104 C21.7316448,4.43247104 22.0216293,4.34766795 22.376332,4.16178379 L22.1896602,5.36031661 C21.7971506,5.47334363 21.5412973,5.51351352 21.2446178,5.51351352 C20.0913745,5.51351352 19.3738301,4.64355984 19.3738301,3.24719691 C19.3738301,1.36892664 20.3649498,0.0572355212 21.7831043,0.0572355212 C21.9658379,0.0572355212 22.1294054,0.0750888031 22.2625174,0.113814672 L22.7034672,0.229335908 C22.8342162,0.281451737 22.8640154,0.289328185 22.9599769,0.330942085 L22.9599769,0.330942085 Z M24.8025406,3.51486487 C24.6910888,3.5014749 24.6396293,3.49648648 24.5646718,3.49648648 C23.9563475,3.49648648 23.6486409,3.71702702 23.6486409,4.14839382 C23.6486409,4.41409266 23.8010502,4.58356757 24.0344556,4.58356757 C24.4715984,4.58356757 24.783112,4.14839382 24.8025406,3.51486487 L24.8025406,3.51486487 Z M25.5809962,5.41689575 L24.6938455,5.41689575 L24.7148494,4.97371428 C24.4449498,5.32710425 24.0835521,5.49119691 23.5941621,5.49119691 C23.012749,5.49119691 22.614332,5.01532819 22.614332,4.32784556 C22.614332,3.28526641 23.3073282,2.68009266 24.4954903,2.68009266 C24.616,2.68009266 24.7720849,2.68941312 24.9304016,2.71172973 C24.9630888,2.57047876 24.9728031,2.50956757 24.9728031,2.43474131 C24.9728031,2.1526332 24.7869189,2.04551352 24.2857143,2.04551352 C23.9816834,2.04551352 23.635251,2.09172201 23.3979073,2.16759846 L23.2454981,2.21065637 L23.1533436,2.23835521 L23.3020772,1.28071043 C23.8366255,1.11464865 24.1876525,1.05071815 24.5809498,1.05071815 C25.5015753,1.05071815 25.988471,1.48444788 25.988471,2.30281081 C25.988471,2.5154749 25.9699614,2.67313513 25.9007799,3.15005406 L25.6753822,4.66285715 L25.6420386,4.93603861 L25.6122394,5.15369112 L25.5929421,5.30242471 L25.5809962,5.41689575 L25.5809962,5.41689575 Z M28.5685328,1.11162935 C28.5366332,1.10519691 28.501583,1.10073359 28.460888,1.10073359 C28.109861,1.10073359 27.9091428,1.28714285 27.5804325,1.79583011 L27.6756062,1.14681081 L26.7082471,1.14681081 L26.0539769,5.41689575 L27.1254363,5.41689575 C27.509807,2.80703475 27.610888,2.35637065 28.1224633,2.35637065 C28.1559382,2.35637065 28.1537065,2.35348263 28.1975521,2.36083398 C28.2941699,1.84637065 28.4250502,1.46816989 28.6050271,1.12305019 L28.5685328,1.11162935 L28.5685328,1.11162935 Z M31.4788803,5.41689575 L30.466888,5.41689575 L30.5196602,4.9985251 C30.2252124,5.32907336 29.9226255,5.47334363 29.5315599,5.47334363 C28.7492973,5.47334363 28.2370656,4.76840154 28.2370656,3.70074903 C28.2370656,2.28049421 29.0333745,1.08143629 29.9792046,1.08143629 C30.3948185,1.08143629 30.7093513,1.26141312 31.0052433,1.66586873 L31.2379923,0.165930502 L32.2923861,0.165930502 L31.4788803,5.41689575 L31.4788803,5.41689575 Z M29.9003089,4.41159846 C30.3999382,4.41159846 30.74939,3.81823938 30.74939,2.97296525 C30.74939,2.43027799 30.5502471,2.13477992 30.1805791,2.13477992 C29.6959151,2.13477992 29.351583,2.7306332 29.351583,3.57078764 C29.351583,4.13001545 29.5366795,4.41159846 29.9003089,4.41159846 L29.9003089,4.41159846 Z M32.0996757,4.79767567 C32.0996757,4.42643243 32.3875599,4.12607722 32.7392433,4.12607722 C33.0923707,4.12607722 33.3772355,4.42643243 33.3772355,4.79767567 C33.3772355,5.16944401 33.0923707,5.46993051 32.7392433,5.46993051 C32.3875599,5.46993051 32.0996757,5.16944401 32.0996757,4.79767567 L32.0996757,4.79767567 Z M32.7392433,5.31082626 C33.0075675,5.31082626 33.2269266,5.08030888 33.2269266,4.79767567 C33.2269266,4.51661776 33.0075675,4.28806949 32.7392433,4.28806949 C32.471444,4.28806949 32.2514285,4.51661776 32.2514285,4.79767567 C32.2514285,5.08030888 32.471444,5.31082626 32.7392433,5.31082626 L32.7392433,5.31082626 L32.7392433,5.31082626 Z M32.6520772,5.09212355 L32.5213282,5.09212355 L32.5213282,4.50033976 L32.7585406,4.50033976 C32.8068494,4.50033976 32.8610656,4.5032278 32.9028108,4.53302702 C32.9481003,4.56623938 32.9742239,4.62216216 32.9742239,4.68176062 C32.9742239,4.74713513 32.9369421,4.80857143 32.8774749,4.83088803 L32.9801312,5.09212355 L32.834417,5.09212355 L32.7481699,4.86016216 L32.6520772,4.86016216 L32.6520772,5.09212355 L32.6520772,5.09212355 L32.6520772,5.09212355 Z M32.6520772,4.75960618 L32.7250656,4.75960618 C32.7518455,4.75960618 32.7832201,4.7605251 32.8054054,4.74713513 C32.827722,4.73282626 32.8374363,4.70407722 32.8374363,4.67874131 C32.8374363,4.65642471 32.8247027,4.62964479 32.8054054,4.61927413 C32.7859769,4.60588417 32.7465946,4.6087722 32.7236216,4.6087722 L32.6520772,4.6087722 L32.6520772,4.75960618 L32.6520772,4.75960618 L32.6520772,4.75960618 Z" id="Fill-12" fill="#D9222A"></path>
                        </g>
                    </g>
                </g>
            </g>
        </g>
    </g>
</svg>