<svg xmlns="http://www.w3.org/2000/svg" height="800" width="1200" viewBox="-33.048 -37.3205 286.416 223.923"><path d="M35.36 60.37c.59.57.59.57 0 0z" fill="#fcfdfc"/><g fill="#037f04"><path d="M22.63.5c1.41-.57 2.98-.42 4.46-.5 56.03.05 112.06-.05 168.09.05 3.09-.43 4.84 2.39 6.68 4.35 2.21 2.78 4.93 5.09 7.28 7.74 1.91 2.31.92 5.46 1.06 8.18-27.97.02-55.93-.1-83.9-.03-.13 5.64.1 11.29-.27 16.93-10.99-.01-21.99.15-32.98-.02-.05-5.65 0-11.29-.02-16.93-27.67-.03-55.33.06-83 .07.19-2.88-.93-6.52 1.79-8.54C15.65 8.25 18.87 4.11 22.63.5z"/><path d="M10.21 21.93c11.64.03 23.27 0 34.9-.01.16 2.67.16 5.35.01 8.03-4.32.31-8.9-.59-12.99 1.19-4.53 1.85-9.57 2.51-13.68 5.29-2.69 1.43-4.94 3.82-8.16 3.97-.48-6.14-.36-12.32-.08-18.47zm164.86.44c11.62-.96 23.33-.18 34.99-.41.16 2.66.17 5.32.02 7.98-11.6.55-23.24 0-34.85.01-.26-2.52-.27-5.06-.16-7.58zM56.12 45.27c.79-2.55 3.02-5.41 5.97-5.26 9.73-.05 19.47-.05 29.21.04.03 7.06.07 14.11-.04 21.17-11.74.13-23.48.09-35.22.01.06-5.32-.17-10.65.08-15.96zm36.89-5c11.04-.75 22.1.32 33.15-.01.11 6.99.3 13.99-.13 20.96-11.01.12-22.03.13-33.05-.01-.07-6.98-.12-13.96.03-20.94zm36-.22c9.7-.05 19.4-.05 29.09-.02 2.7-.08 4.12 2.78 5.85 4.44.64 5.55.27 11.19.08 16.76-11.67.08-23.34.13-35.01-.03-.12-7.05-.06-14.1-.01-21.15z"/><path d="M37.48 42.39c2.42-1.14 5.11-1.21 7.73-1.26-.03 6.94.18 13.89-.03 20.83-7.71 7.45-14.87 15.59-22.89 22.75 0 13.82-.09 27.64.02 41.46-.5 3.59 3.3 5.31 5.16 7.81 54.24.08 108.47-.03 162.7.06 3.06.52 4.83-2.38 6.62-4.33.46-10.17.08-20.39.21-30.58-.14-5.19.32-10.41-.23-15.58-6.83-7.56-14.48-14.35-21.44-21.78-.65-6.81-.31-13.76-.08-20.62 3.17.08 6.97.03 9.2 2.68 7.57 7.75 15.31 15.32 22.9 23.04 3.5 4.17 7.43 7.94 11.56 11.48 1.56 1.07 1.23 3.1 1.37 4.73.02 17.36-.05 34.72.04 52.08-.04 1.55.05 3.14-.34 4.66-2.64 2.75-5.77 5-8.27 7.9-1.23 1.85-3.64 1.44-5.54 1.56-65.59-.1-131.17.13-196.75-.12-2.87-3.27-6.23-6.09-9.07-9.38-.51-1.48-.28-3.08-.35-4.61.05-17.36.02-34.73.01-52.09.1-1.65-.16-3.63 1.34-4.75C10.67 69 20.04 59.71 29.32 50.34c2.64-2.73 4.9-5.9 8.16-7.95m-2.12 17.98c.59.57.59.57 0 0z"/><path d="M56.23 63.03c11.68.05 23.38-.38 35.04.24.18 6.9.04 13.81.01 20.72-11.73.72-23.5.17-35.25.33.02-7.09-.19-14.2.2-21.29zm36.77.14c10.99-.29 22.02-.41 33.01.06.4 7 .42 14.04-.03 21.04-10.98.04-21.97.25-32.94-.14-.17-6.99-.2-13.98-.04-20.96zm36.04-.1c11.65-.21 23.31-.06 34.97-.07.34 7.1.36 14.22.01 21.32-11.61-.03-23.21.12-34.82-.11-.42-7.04-.24-14.1-.16-21.14zm-72.86 22.9c11.7.14 23.43-.49 35.09.36.07 5.58.03 11.15.09 16.73-11.78.45-23.58.07-35.37.21.13-5.77-.15-11.54.19-17.3zm36.84.14c10.99-.33 21.99-.18 32.98-.12.5 5.7.13 11.42.28 17.13-11.09.21-22.2.27-33.3-.06-.08-5.65-.1-11.3.04-16.95zm36.04-.07c11.65-.2 23.31-.07 34.96-.11.45 5.75.06 11.52.33 17.28-11.82.24-23.64-.28-35.46.05.15-5.74.03-11.49.17-17.22zm-72.82 19.95c11.67.03 23.34-.07 35.01.08.14 6.63.04 13.26.09 19.89-11.69.49-23.41.35-35.1-.02-.36-6.64-.32-13.31 0-19.95zm36.78.06c11-.07 22-.11 33-.02.43 6.66.2 13.33.23 20-11.07.41-22.15.12-33.22.17-.14-6.72-.16-13.44-.01-20.15zm35.95-.08c11.75-.02 23.5-.02 35.25.03-.01 6.67.21 13.34-.17 19.99-11.71.15-23.42.39-35.13 0 .11-6.67.03-13.35.05-20.02z"/></g></svg>