<?xml version="1.0" encoding="UTF-8"?>
<svg width="32px" height="13px" viewBox="0 0 32 13" version="1.1" xmlns="http://www.w3.org/2000/svg" xmlns:xlink="http://www.w3.org/1999/xlink">
    <!-- Generator: Sketch 39.1 (31720) - http://www.bohemiancoding.com/sketch -->
    <title>pci-dss</title>
    <desc>Created with Sketch.</desc>
    <defs></defs>
    <g id="Page-1" stroke="none" stroke-width="1" fill="none" fill-rule="evenodd">
        <g id="icon" transform="translate(-166.000000, -258.000000)">
            <g id="old-icon">
                <g id="pci-dss" transform="translate(166.000000, 258.000000)">
                    <g id="Page-1">
                        <g id="Shape-+-Shape">
                            <path d="M15.7117977,0 C15.7293414,0.0770456841 17.019216,3.32629254 17.6604373,4.86806324 C17.7500036,5.08341934 17.7259466,5.2341263 17.5815979,5.3956186 C17.4199305,5.57648038 17.274277,5.77219732 17.1078742,5.94829961 C16.7090479,6.37036266 16.4115057,6.8652987 16.0912535,7.34424754 C16.0666937,7.38098038 16.0377972,7.4147861 16.0109163,7.44995305 C16.0045218,7.40442502 15.9925855,7.35890124 15.992541,7.31336681 C15.9914653,6.21939134 15.9914144,5.12541587 15.991775,4.03143934 C15.9919087,3.62162732 16.0130825,3.72704822 15.5368256,3.71048432 L14.3579753,3.71048432 C13.9818578,3.71048432 13.9750749,3.6700782 13.9746209,3.92647574 C13.9728494,4.92734531 13.973821,5.92821914 13.9738178,6.92908976 C13.9738168,7.40624994 13.9742687,7.8834101 13.97307,8.36056704 C13.9729554,8.40608656 13.9787156,8.45157944 13.97307,8.49708512 C13.9441874,8.47967272 13.4248774,7.9855809 13.4248774,7.9855809 C13.3759158,7.93100076 13.2588342,7.95943514 13.2218056,8.02202168 C13.212026,8.03855248 13.2206514,7.7468228 13.2188237,7.6653955 C13.2169778,7.58320072 13.1937313,7.54830346 13.0935176,7.56553143 C12.6058676,7.64936672 12.1135723,7.71819975 11.6190822,7.6743442 C11.2930105,7.64542589 10.9644554,7.60772942 10.6873942,7.3791576 C10.4860865,7.21308062 10.365953,7.01846802 10.3583565,6.76621598 C10.3510655,6.52409693 10.3344692,6.2706894 10.3927808,6.04034488 C10.5581303,5.3871805 10.9589583,5.16831206 11.5977482,5.10676378 C12.0037064,5.06764959 12.4048908,5.14750994 12.8027295,5.22652071 C12.8299637,5.23192937 12.8573686,5.23632537 12.8849571,5.2394241 C13.1344691,5.26745127 13.148945,5.24708086 13.1502508,4.97103563 C13.1516818,4.66845342 13.1486278,4.36584138 13.1515322,4.0632805 C13.1524275,3.96997952 13.1341604,3.91694183 13.0243062,3.90231691 C12.7647589,3.86776396 12.5087993,3.79351481 12.2488128,3.7774743 C11.7565727,3.74710202 11.2620232,3.75155346 10.7700599,3.77975119 C10.2891418,3.80731681 9.732972,3.99939777 9.33932568,4.29580063 C8.81426936,4.6911519 8.64388424,4.9827313 8.4559904,5.34500915 C8.29040648,5.66427356 8.25452248,6.45017289 8.28842064,6.94453546 C8.30233848,7.14750516 8.36560304,7.34886634 8.4210548,7.54681965 C8.60093312,8.18895136 9.04846008,8.5695296 9.64686392,8.80430632 C10.3480274,9.07939752 11.0800689,9.10629056 11.8166114,9.07240808 C11.9187005,9.0677136 11.9829198,9.06422368 12.0448679,9.1426748 C12.2380254,9.38728712 12.434812,9.62903416 12.6259848,9.87519 C12.73746,10.0187262 12.7215531,10.0616363 12.5321763,10.1206668 C12.141495,10.2424426 11.7482315,10.355871 11.3577899,10.478392 C9.90352792,10.9347447 8.45035328,11.3945958 6.99601279,11.8506938 C6.19362054,12.102334 5.38785118,12.3433413 4.5886212,12.604639 C4.47560518,12.6415893 4.43401879,12.6111776 4.40377139,12.5334865 C4.30833829,12.2883593 4.2241328,12.0388478 4.13280398,11.7920716 C3.78772044,10.8596332 3.44388918,9.92670976 3.09306508,8.99645232 C3.04426836,8.86706128 3.1011267,8.85849736 3.19701277,8.85853792 C3.63712311,8.8587212 4.07724407,8.86023912 4.5173401,8.85763184 C4.80132258,8.85594872 4.7345621,8.36210416 4.7345621,8.36210416 L4.7345621,7.6690837 C4.7345621,7.49929614 4.77873422,7.46230427 4.91545987,7.45842739 C5.30671356,7.44733186 5.69786064,7.42921808 6.0886916,7.40736066 C6.37683406,7.39124554 6.6598337,7.32348486 6.90877605,7.18403653 C7.42995189,6.89209257 7.697556,6.43023312 7.72081956,5.82918331 C7.73515958,5.45869653 7.72718336,5.0970252 7.55804466,4.74789271 C7.34788553,4.3140871 6.98662039,4.09323492 6.55078882,3.98813595 C6.29692644,3.92691705 5.76401699,3.91005682 5.76401699,3.91005682 C5.76401699,3.91005682 3.98044147,3.90925415 3.08863886,3.91005682 C2.73900816,3.91037127 2.78095735,3.87631826 2.78057015,4.23216734 C2.7793168,5.38433226 2.78065873,6.53649932 2.78057015,7.68866638 C2.78056485,7.75849394 2.78433656,7.82866687 2.77848142,7.89800836 C2.77542416,7.93421781 2.75520884,7.96896478 2.74274326,8.00437264 C2.73147003,7.97294398 2.72050498,7.94139915 2.7088785,7.91010269 C2.4938826,7.33141344 0.0695212286,0.861588056 0.0695212286,0.83830172 L15.7117977,0 L15.7117977,0 Z M13.7609038,2.24359329 C13.7015546,2.87258714 14.279626,3.43993302 14.9179046,3.42833542 C15.5692206,3.41649905 16.0636894,2.92677872 16.0657432,2.26914265 C16.0677121,1.63935947 15.5409776,1.07239626 14.9430627,1.06071978 C14.3230725,1.04861266 13.7620431,1.60998067 13.7609038,2.24359329 L13.7609038,2.24359329 Z M22.2437208,6.31413815 C22.2289181,6.2902439 22.2104146,6.2692771 22.1882105,6.25115862 C22.1660063,6.23311926 22.1408102,6.21903589 22.1128582,6.20890853 C22.0847486,6.19886029 22.0554581,6.19379661 22.0247502,6.19379661 C21.9686888,6.19379661 21.9210522,6.20471517 21.8819194,6.22647317 C21.8427866,6.2483103 21.8110552,6.27750558 21.7868038,6.31413814 C21.762395,6.35084983 21.7447578,6.39254608 21.733577,6.43930601 C21.7224749,6.48614506 21.7169632,6.53448739 21.7169632,6.58441212 C21.7169632,6.63227973 21.7224749,6.6788023 21.733577,6.72397982 C21.7447578,6.76915735 21.762395,6.80982504 21.7868038,6.84590377 C21.8110552,6.88206162 21.8427866,6.91101954 21.8819194,6.93277754 C21.9210522,6.95461466 21.9686888,6.96553322 22.0247502,6.96553322 C22.10089,6.96553322 22.1604159,6.9421137 22.2032494,6.89535378 C22.246083,6.84859385 22.2723027,6.78695936 22.28183,6.71037118 L22.5230047,6.71037118 C22.5166269,6.78157919 22.5002494,6.84590378 22.4737934,6.9033449 C22.4473374,6.9607069 22.4124565,7.00960307 22.3690718,7.05003341 C22.3256871,7.09038462 22.274901,7.12124142 22.2167137,7.14244558 C22.1585262,7.16372887 22.094591,7.17433095 22.0247502,7.17433095 C21.937981,7.17433095 21.8599515,7.15921903 21.7907408,7.12891606 C21.7214513,7.0986131 21.6630276,7.05691685 21.6153911,7.0037482 C21.5678333,6.95065867 21.5312989,6.88815386 21.5059452,6.816392 C21.4805128,6.74463014 21.467836,6.66732989 21.467836,6.58441212 C21.467836,6.49943722 21.4805128,6.42047545 21.5059452,6.34768503 C21.5312989,6.27489462 21.5678333,6.21136124 21.6153911,6.15716403 C21.6630276,6.1028877 21.7214513,6.06040026 21.7907408,6.02954345 C21.8599515,5.99876577 21.937981,5.98333736 22.0247502,5.98333736 C22.0871895,5.98333736 22.1461643,5.99235704 22.2016747,6.01047552 C22.257185,6.02851488 22.3069474,6.05486186 22.3508046,6.08935818 C22.3947404,6.12393362 22.4309599,6.16665844 22.4595418,6.21769085 C22.488045,6.26872326 22.506076,6.32719294 22.5134774,6.39309992 L22.2723027,6.39309992 C22.2680509,6.36437936 22.2585235,6.33811151 22.2437208,6.31413815 L22.2437208,6.31413815 Z M22.7593763,6.34768504 C22.7848087,6.27489462 22.8212645,6.21136125 22.868901,6.15716404 C22.9164588,6.10288771 22.9749611,6.06040026 23.0442506,6.02954346 C23.1134614,5.99876578 23.1914908,5.98333737 23.2782602,5.98333737 C23.366053,5.98333737 23.4443187,5.99876578 23.5131358,6.02954346 C23.5818741,6.06040026 23.6400615,6.10288771 23.6876193,6.15716404 C23.7352558,6.21136125 23.7717115,6.27489462 23.7971439,6.34768504 C23.8224976,6.42047546 23.8351744,6.49943723 23.8351744,6.58441213 C23.8351744,6.6673299 23.8224976,6.74463016 23.7971439,6.81639201 C23.7717115,6.88815386 23.7352558,6.95065868 23.6876193,7.00374821 C23.6400615,7.05691686 23.5818741,7.0986131 23.5131358,7.12891607 C23.4443187,7.15921903 23.366053,7.17433096 23.2782602,7.17433096 C23.1914908,7.17433096 23.1134614,7.15921904 23.0442506,7.12891607 C22.9749611,7.09861311 22.9164588,7.05691686 22.868901,7.00374821 C22.8212645,6.95065868 22.7848087,6.88815386 22.7593763,6.81639201 C22.7340227,6.74463015 22.7213458,6.6673299 22.7213458,6.58441213 C22.7213458,6.49943723 22.7340227,6.42047546 22.7593763,6.34768504 L22.7593763,6.34768504 Z M22.9870868,6.72397983 C22.9981889,6.76915736 23.015905,6.80982505 23.040235,6.84590378 C23.064565,6.88206162 23.0962965,6.91101954 23.1354293,6.93277754 C23.1745622,6.95461466 23.2221986,6.96553323 23.2782602,6.96553323 C23.3343216,6.96553323 23.3819582,6.95461467 23.421091,6.93277754 C23.4602238,6.91101954 23.4919552,6.88206162 23.5162853,6.84590378 C23.5406154,6.80982505 23.5583314,6.76915736 23.5694335,6.72397983 C23.5805355,6.6788023 23.5861259,6.63227974 23.5861259,6.58441213 C23.5861259,6.5344874 23.5805355,6.48614507 23.5694335,6.43930602 C23.5583314,6.3925461 23.5406154,6.35084984 23.5162853,6.31413815 C23.4919552,6.27750559 23.4602238,6.2483103 23.421091,6.22647318 C23.3819582,6.20471518 23.3343216,6.19379662 23.2782602,6.19379662 C23.2221986,6.19379662 23.1745622,6.20471518 23.1354293,6.22647318 C23.0962965,6.2483103 23.064565,6.27750559 23.040235,6.31413815 C23.015905,6.35084984 22.9981889,6.39254609 22.9870868,6.43930602 C22.9759847,6.48614507 22.970473,6.5344874 22.970473,6.58441213 C22.970473,6.63227974 22.9759847,6.6788023 22.9870868,6.72397983 L22.9870868,6.72397983 Z M24.4334262,6.01047553 L24.6983798,6.79328897 L24.701608,6.79328897 L24.95231,6.01047553 L25.3029306,6.01047553 L25.3029306,7.14885431 L25.0697084,7.14885431 L25.0697084,6.34206751 L25.0665589,6.34206751 L24.7888498,7.14885431 L24.5968864,7.14885431 L24.3191773,6.35005863 L24.3160278,6.35005863 L24.3160278,7.14885431 L24.0827269,7.14885431 L24.0827269,6.01047553 L24.4334262,6.01047553 L24.4334262,6.01047553 Z M26.1105468,6.01047553 C26.181411,6.01047553 26.2417244,6.02084026 26.2914868,6.04149058 C26.3411706,6.06222002 26.3816419,6.08967467 26.4128222,6.12361715 C26.4440025,6.15763877 26.4668365,6.1964867 26.4810881,6.2400027 C26.4953397,6.28359782 26.5025048,6.32877535 26.5025048,6.37553529 C26.5025048,6.42126666 26.4953397,6.46620682 26.4810881,6.51027667 C26.4668365,6.55442564 26.4440025,6.59351093 26.4128222,6.62745342 C26.3816419,6.66147502 26.3411706,6.68885054 26.2914868,6.70957999 C26.2417244,6.73030944 26.181411,6.74067416 26.1105468,6.74067416 L25.8487427,6.74067416 L25.8487427,7.14885432 L25.5996155,7.14885432 L25.5996155,6.01047554 L26.1105468,6.01047554 L26.1105468,6.01047553 L26.1105468,6.01047553 Z M26.0423596,6.54619716 C26.0709415,6.54619716 26.0984211,6.54406092 26.1248771,6.53978843 C26.1512543,6.53551595 26.1745608,6.52728747 26.194639,6.51510299 C26.2147172,6.50283938 26.2308586,6.48559122 26.243063,6.46327938 C26.2551886,6.44096754 26.2613302,6.41169313 26.2613302,6.37553529 C26.2613302,6.33945656 26.2551886,6.31018215 26.243063,6.28787031 C26.2308586,6.26555847 26.2147172,6.24831031 26.194639,6.2360467 C26.1745608,6.22386222 26.1512543,6.21563374 26.1248771,6.21136126 C26.0984211,6.20708878 26.0709415,6.20495254 26.0423596,6.20495254 L25.8487427,6.20495254 L25.8487427,6.54619716 L26.0423596,6.54619716 L26.0423596,6.54619716 Z M26.9847754,6.01047553 L26.9847754,6.93839507 L27.5369654,6.93839507 L27.5369654,7.14885431 L26.7356482,7.14885431 L26.7356482,6.01047553 L26.9847754,6.01047553 L26.9847754,6.01047553 Z M28.0034884,6.01047553 L28.0034884,7.14885431 L27.7543612,7.14885431 L27.7543612,6.01047553 L28.0034884,6.01047553 L28.0034884,6.01047553 Z M28.865119,6.01047553 L29.2887297,7.14885431 L29.0300752,7.14885431 L28.9444082,6.89535378 L28.5207974,6.89535378 L28.4319022,7.14885431 L28.1812002,7.14885431 L28.609614,6.01047553 L28.865119,6.01047553 L28.865119,6.01047553 Z M28.8793706,6.70878878 L28.7365397,6.2910351 L28.7333902,6.2910351 L28.585835,6.70878878 L28.8793706,6.70878878 L28.8793706,6.70878878 Z M29.7123405,6.01047553 L30.1851625,6.77414192 L30.1883907,6.77414192 L30.1883907,6.01047553 L30.4216129,6.01047553 L30.4216129,7.14885431 L30.1724857,7.14885431 L29.7012384,6.3866912 L29.6980889,6.3866912 L29.6980889,7.14885431 L29.464788,7.14885431 L29.464788,6.01047553 L29.7123405,6.01047553 L29.7123405,6.01047553 Z M30.6294814,6.22093478 L30.6294814,6.01047554 L31.5577243,6.01047554 L31.5577243,6.22093478 L31.218127,6.22093478 L31.218127,7.14885432 L30.9689998,7.14885432 L30.9689998,6.22093478 L30.6294814,6.22093478 L30.6294814,6.22093478 Z M22.9390566,1.81023126 L21.467836,1.81023126 L21.3468943,1.81023126 L21.3468943,1.93175961 L21.3468943,5.35884308 L21.3468943,5.48037142 L21.467836,5.48037142 L22.9390566,5.48037142 C23.216723,5.48037142 23.460492,5.43312804 23.6698033,5.33750158 C23.878549,5.24214126 24.0539348,5.11038446 24.194623,4.94277649 C24.3344282,4.77630619 24.4385118,4.57922753 24.5068854,4.35255978 C24.57413,4.129551 24.6075947,3.88731965 24.6075947,3.62611474 C24.6075947,3.32759096 24.5663675,3.06539269 24.4830269,2.83984757 C24.3992512,2.61304023 24.2819262,2.42235177 24.1308785,2.26875927 C23.9799578,2.115296 23.8008372,1.9999973 23.5947784,1.92340464 C23.391619,1.84788969 23.1727808,1.81023127 22.9390566,1.81023127 L22.9390566,1.81023126 L22.9390566,1.81023126 Z M22.3386789,4.60372166 L22.3386789,2.68688103 L22.7527623,2.68688103 C22.9225421,2.68688103 23.062197,2.71061672 23.171853,2.75667779 C23.2786907,2.80151587 23.3628206,2.86475474 23.4262001,2.94693782 C23.4917286,3.0319754 23.5394256,3.1355109 23.5690368,3.2586608 C23.6001165,3.3879181 23.6158102,3.53441618 23.6158102,3.69811396 C23.6158102,3.87365739 23.5940155,4.01966602 23.5515303,4.13627591 C23.5093872,4.25201662 23.4545714,4.34357544 23.3876098,4.41225952 C23.3210418,4.48047376 23.2462861,4.52856512 23.1623962,4.55755434 C23.073262,4.58835585 22.9814434,4.60372166 22.8865383,4.60372166 L22.3386789,4.60372166 L22.3386789,4.60372166 Z M29.6178241,4.45798774 C29.5860146,4.39655153 29.5693522,4.31800781 29.5693522,4.2212555 L29.5693521,4.09972718 L29.4484105,4.09972718 L28.7223669,4.09972718 L28.6032681,4.09972718 L28.6014394,4.21938958 C28.5979185,4.44979406 28.640309,4.65204896 28.729746,4.8245904 C28.8178585,4.99474488 28.9376658,5.13568329 29.0882296,5.24589931 C29.2359329,5.35423369 29.4058408,5.43349371 29.5969942,5.4836315 C29.78398,5.53267612 29.9764562,5.55719698 30.1744541,5.55719698 C30.4183024,5.55719698 30.6347564,5.52840569 30.8237329,5.47021124 C31.0147464,5.41144883 31.1767361,5.32834091 31.3088546,5.22034813 C31.4425257,5.11110274 31.5441463,4.98000221 31.6125525,4.82813505 C31.6802682,4.67769362 31.7140981,4.51501746 31.7140981,4.34128058 C31.7140981,4.12687355 31.6675207,3.94612622 31.5722066,3.80139323 C31.4822015,3.66489721 31.3742926,3.55467012 31.2488554,3.47173834 C31.1273854,3.3917148 31.0045059,3.33303036 30.8799616,3.29596548 C30.7637932,3.26149862 30.6721358,3.23745773 30.6042813,3.22378724 C30.3930995,3.16975205 30.2224335,3.1254962 30.0932713,3.09105611 C29.9670097,3.05742956 29.8700846,3.02448294 29.8031062,2.99288579 C29.7476547,2.96684364 29.7153258,2.94208414 29.7042151,2.92395878 C29.6916175,2.90344697 29.6839947,2.87083946 29.6839947,2.82454989 C29.6839947,2.77358405 29.6938004,2.73613193 29.7114511,2.70954936 C29.7340478,2.67548982 29.7626394,2.64733078 29.7982022,2.62428499 C29.8349056,2.6004829 29.8761066,2.58367632 29.9225317,2.57378815 C29.9746431,2.56279669 30.0268686,2.55728248 30.0789448,2.55728248 C30.1633956,2.55728248 30.240543,2.56451878 30.3103966,2.57881201 C30.3744294,2.59200579 30.4300248,2.61382461 30.4776626,2.64405427 C30.5204885,2.67128655 30.5549695,2.70875676 30.5819626,2.75817374 C30.6091842,2.80828347 30.6263614,2.8760612 30.6317706,2.96183422 L30.6389499,3.07567682 L30.7524702,3.07567682 L31.4785138,3.07567682 L31.5994554,3.07567682 L31.5994554,2.95414847 C31.5994554,2.73670015 31.5576419,2.54817869 31.4726606,2.389976 C31.388859,2.23422186 31.2751338,2.10557126 31.132335,2.00502966 C30.9922528,1.90654858 30.832727,1.83559303 30.6544082,1.7920659 C30.4808165,1.74977639 30.3000714,1.72865854 30.1124085,1.72865854 C29.9488154,1.72865854 29.7853742,1.75088778 29.6222606,1.79522061 C29.4557733,1.84053324 29.3058108,1.91062561 29.172936,2.0054878 C29.0377332,2.10201195 28.9280081,2.22304239 28.8446428,2.36763118 C28.7586496,2.51646403 28.7160678,2.69034106 28.7160678,2.88689644 C28.7160678,3.06287865 28.749815,3.21610129 28.8187994,3.34520681 C28.8857302,3.47063668 28.9741902,3.57599422 29.0835314,3.66016286 C29.1884689,3.74109503 29.3069796,3.80677727 29.4388134,3.8572515 C29.564404,3.90548029 29.6933186,3.94616938 29.8252324,3.97918492 C29.9468653,4.01381415 30.0710725,4.04624424 30.1943942,4.0755725 C30.3101412,4.1031352 30.4127282,4.13495446 30.5020622,4.17092059 C30.5836698,4.2037085 30.6474928,4.24338476 30.6943378,4.2891984 C30.7290858,4.32318132 30.7461711,4.36674371 30.7461711,4.42767963 C30.7461711,4.48766956 30.7322536,4.53206662 30.7057198,4.56541822 C30.6727194,4.60689823 30.6315578,4.63939108 30.5810576,4.66353838 C30.5251936,4.69031653 30.4652434,4.70838882 30.4006898,4.71780818 C30.330089,4.72819361 30.2642349,4.73332025 30.2031147,4.73332025 C30.1145917,4.73332025 30.0292404,4.72259297 29.9467561,4.7011829 C29.8685394,4.68088058 29.8019112,4.65038849 29.7460984,4.60992318 C29.6931149,4.5715532 29.6505967,4.52140446 29.6178675,4.45807172 L29.6178241,4.45798774 L29.6178241,4.45798774 Z M26.0702022,4.45798774 C26.0383927,4.39655153 26.0217302,4.31800781 26.0217302,4.2212555 L26.0217302,4.09972718 L25.9007886,4.09972718 L25.174745,4.09972718 L25.0556462,4.09972718 L25.0538175,4.21938958 C25.0502966,4.44979406 25.0926871,4.65204896 25.1821242,4.8245904 C25.2702366,4.99474488 25.390044,5.13568329 25.5406078,5.24589931 C25.688311,5.35423369 25.8582189,5.43349371 26.0493724,5.4836315 C26.2363581,5.53267612 26.4288342,5.55719698 26.6268322,5.55719698 C26.8706805,5.55719698 27.0871345,5.52840569 27.276111,5.47021124 C27.4671245,5.41144883 27.6291142,5.32834091 27.7612326,5.22034813 C27.8949038,5.11110274 27.9965244,4.98000221 28.0649306,4.82813505 C28.1326462,4.67769362 28.1664762,4.51501746 28.1664762,4.34128058 C28.1664762,4.12687355 28.1198988,3.94612622 28.0245847,3.80139323 C27.9345796,3.66489721 27.8266706,3.55467012 27.7012335,3.47173834 C27.5797635,3.3917148 27.4568841,3.33303036 27.3323398,3.29596548 C27.2161713,3.26149862 27.1245139,3.23745773 27.0566594,3.22378724 C26.8454776,3.16975205 26.6748117,3.1254962 26.5456494,3.09105611 C26.4193878,3.05742956 26.3224626,3.02448294 26.2554842,2.99288579 C26.2000329,2.96684364 26.167704,2.94208414 26.1565932,2.92395878 C26.1439957,2.90344697 26.1363729,2.87083946 26.1363729,2.82454989 C26.1363729,2.77358405 26.1461786,2.73613193 26.1638292,2.70954936 C26.186426,2.67548982 26.2150176,2.64733078 26.2505802,2.62428499 C26.2872837,2.6004829 26.3284846,2.58367632 26.3749098,2.57378815 C26.4270212,2.56279669 26.4792467,2.55728248 26.531323,2.55728248 C26.6157737,2.55728248 26.692921,2.56451878 26.7627746,2.57881201 C26.8268076,2.59200579 26.882403,2.61382461 26.9300407,2.64405427 C26.9728666,2.67128655 27.0073477,2.70875676 27.0343407,2.75817374 C27.0615623,2.80828347 27.0787396,2.8760612 27.0841487,2.96183422 L27.091328,3.07567682 L27.2048483,3.07567682 L27.9308919,3.07567682 L28.0518335,3.07567682 L28.0518335,2.95414847 C28.0518335,2.73670015 28.01002,2.54817869 27.9250388,2.389976 C27.8412371,2.23422186 27.7275118,2.10557126 27.5847131,2.00502966 C27.4446309,1.90654858 27.285105,1.83559303 27.1067862,1.7920659 C26.9331946,1.74977639 26.7524495,1.72865854 26.5647866,1.72865854 C26.4011935,1.72865854 26.2377522,1.75088778 26.0746386,1.79522061 C25.9081514,1.84053324 25.7581889,1.91062561 25.6253141,2.0054878 C25.4901114,2.10201195 25.3803862,2.22304239 25.2970209,2.36763118 C25.2110278,2.51646403 25.1684459,2.69034106 25.1684459,2.88689644 C25.1684459,3.06287865 25.202193,3.21610129 25.2711774,3.34520681 C25.3381083,3.47063668 25.4265682,3.57599422 25.5359096,3.66016286 C25.640847,3.74109503 25.7593577,3.80677727 25.8911915,3.8572515 C26.0167821,3.90548029 26.1456966,3.94616938 26.2776105,3.97918492 C26.3992434,4.01381415 26.5234506,4.04624424 26.6467723,4.0755725 C26.7625193,4.1031352 26.8651063,4.13495446 26.9544402,4.17092059 C27.0360478,4.2037085 27.0998709,4.24338476 27.1467159,4.2891984 C27.1814639,4.32318132 27.1985492,4.36674371 27.1985492,4.42767963 C27.1985492,4.48766956 27.1846317,4.53206662 27.1580979,4.56541822 C27.1250974,4.60689823 27.083936,4.63939108 27.0334358,4.66353838 C26.9775717,4.69031653 26.9176215,4.70838882 26.853068,4.71780818 C26.7824672,4.72819361 26.716613,4.73332025 26.6554929,4.73332025 C26.5669698,4.73332025 26.4816186,4.72259297 26.3991342,4.7011829 C26.3209175,4.68088058 26.2542893,4.65038849 26.1984766,4.60992318 C26.145493,4.5715532 26.1029748,4.52140446 26.0702457,4.45807172 L26.0702022,4.45798774 L26.0702022,4.45798774 Z M4.73580962,5.16678987 C4.73521556,5.08256978 4.76918322,5.04192488 4.85809393,5.04188544 C5.14459213,5.04175646 5.39410785,5.04205812 5.67177109,5.04188544 C6.03096658,5.04166159 6.14158994,5.47697766 6.1211895,5.7190818 C6.09853591,5.98791584 5.91077258,6.28502223 5.61860224,6.28628858 C5.39410838,6.28726286 5.12725531,6.286166 4.87029112,6.28628858 C4.76435547,6.28633975 4.73111553,6.24220066 4.7345621,6.1410809 C4.74008946,5.97887974 4.73695317,5.32917225 4.73580962,5.16678987 L4.73580962,5.16678987 Z M17.4076633,8.58477912 C17.426325,8.53842712 17.4342918,8.50725008 17.4501806,8.48089752 C17.657815,8.13650208 17.8644586,7.79146929 18.0759565,7.44947337 C18.1787659,7.28322798 18.2915236,7.12320563 18.3990579,6.95988948 C18.4328405,6.90858183 18.4473396,6.81277054 18.5021156,6.95745058 C18.6276221,7.2889351 18.7716122,7.61332356 18.905881,7.94150895 C18.9381445,8.02037048 18.9850874,8.09000408 18.8402784,8.13330848 C18.3836783,8.26985208 17.9328808,8.4259816 17.4797411,8.57422832 C17.4688933,8.57777688 17.4568849,8.577746 17.4076633,8.58477912 L17.4076633,8.58477912 Z M14.9036664,9.38127048 C14.8745811,9.36397776 14.8465927,9.34733888 14.8186086,9.3307 C14.8484725,9.31756096 14.8785146,9.29361592 14.9081494,9.29431688 C14.9379497,9.29502168 14.9673426,9.32025544 14.9969137,9.33474176 C14.9671962,9.34957024 14.9374786,9.3643988 14.9036664,9.38127048 L14.9036664,9.38127048 Z" id="Shape" fill="#16656D"></path>
                            <path d="M13.9768762,11.2383747 C13.9768762,11.2383747 13.1478841,10.189955 12.7338776,9.66535024 C12.5914968,9.484934 12.4589306,9.29627584 12.3095887,9.1220208 C12.2421127,9.04328832 12.2708819,9.01139808 12.3349834,8.9673752 C12.6273596,8.76658 12.9218022,8.56862456 13.2094493,8.3611736 C13.3247943,8.2779864 13.3929895,8.32720376 13.4765951,8.40721224 C13.9033865,8.81563424 14.763037,9.62607824 14.763037,9.62607824 C14.763037,9.62607824 14.9821387,9.83426584 15.1208311,9.58174624 C15.4687025,8.9483788 15.8147259,8.31392192 16.169745,7.68460403 C16.509883,7.08166854 16.8980163,6.51125323 17.3613696,5.99562911 C17.8482091,5.45387309 18.3374758,4.91432253 18.8257071,4.37383179 C18.8334914,4.3652146 18.8417105,4.35699502 18.8495393,4.34842047 C18.9973079,4.18660518 19.2092705,3.93345562 19.3001203,3.88118329 C19.5296711,3.72578506 20.7475528,3.86233506 20.8341679,3.8719212 C20.7723354,3.93995476 20.7145171,4.01226813 20.6479831,4.0752885 C20.3457033,4.36159462 20.0290452,4.63360521 19.7393868,4.93213998 C18.926605,5.76982983 18.2390857,6.70296537 17.64911,7.71272926 C17.0872309,8.67440472 16.501142,9.62179208 15.9262022,10.5757692 C15.8608945,10.6841332 15.7387974,10.9052444 15.7387974,10.9052444 C15.7387974,10.9052444 15.4978811,11.2285839 15.3468112,11.3287166 C15.3048519,11.3565274 15.2019237,11.4568274 15.103487,11.4961644 C15.0459443,11.5191592 14.9454135,11.5341924 14.8447787,11.5439662 C14.626411,11.5651744 14.4062273,11.5190483 14.2147415,11.4114646 C14.136963,11.3677658 14.0601466,11.3173269 14.003964,11.2640578 L13.9768762,11.2383747 L13.9768762,11.2383747 L13.9768762,11.2383747 Z" id="Shape" fill="#2DB54D"></path>
                        </g>
                    </g>
                </g>
            </g>
        </g>
    </g>
</svg>