<?xml version="1.0" encoding="UTF-8"?>
<svg width="40px" height="11px" viewBox="0 0 40 11" version="1.1" xmlns="http://www.w3.org/2000/svg" xmlns:xlink="http://www.w3.org/1999/xlink">
    <!-- Generator: Sketch 39.1 (31720) - http://www.bohemiancoding.com/sketch -->
    <title>RuPay Logo(1)</title>
    <desc>Created with Sketch.</desc>
    <defs></defs>
    <g id="Page-1" stroke="none" stroke-width="1" fill="none" fill-rule="evenodd">
        <g id="icon" transform="translate(-6.000000, -258.000000)">
            <g id="old-icon">
                <g id="RuPay-Logo(1)" transform="translate(6.000000, 258.000000)">
                    <g id="g3346" transform="translate(35.187546, 0.804081)" fill="#008940">
                        <polygon id="path3348" points="2.50521254 0.0419273185 4.75048639 4.50261671 0.0285392941 8.96590351"></polygon>
                    </g>
                    <g id="g3350" transform="translate(33.631026, 0.804081)" fill="#F36717">
                        <polygon id="path3352" points="2.50521249 0.0419273185 4.74829565 4.50261671 0.0288636187 8.96590351"></polygon>
                    </g>
                    <g id="g3356" fill="#21317D">
                        <g id="g3362" transform="translate(0.048787, 0.074945)">
                            <path d="M0.0711354402,8.07220768 L2.31072981,0.00259244625 L5.89117649,0.00259244625 C7.01077111,0.00259244625 7.75835706,0.179713249 8.1392901,0.545067465 C8.51616609,0.906202458 8.58894526,1.49898134 8.36095357,2.32802942 C8.22391479,2.81865799 8.01531446,3.22920545 7.72622757,3.55391001 C7.44208973,3.87918406 7.0665929,4.13662862 6.60306308,4.32535229 C6.99486855,4.42044333 7.24460448,4.60681226 7.35795159,4.88892097 C7.469108,5.16916518 7.45653142,5.57963095 7.32006089,6.11723801 L7.04858011,7.24445955 L7.04663267,7.27456114 C6.96914774,7.5906663 6.99251504,7.75967302 7.11997947,7.77362816 L7.03786986,8.07220769 L4.61515168,8.07220769 C4.62342763,7.88308041 4.63843757,7.71261282 4.65458373,7.56932753 C4.67227124,7.42320218 4.69450265,7.31115254 4.71543566,7.23358712 L4.9418049,6.42717776 C5.05515171,6.00835279 5.06261613,5.71585944 4.95649048,5.54758316 C4.85012125,5.37443893 4.61133822,5.28997519 4.23413755,5.28997519 L3.21661216,5.28997519 L2.44006051,8.07220769 L0.0711354402,8.07220769 L0.0711354402,8.07220768 Z M3.71973591,3.47196444 L4.81093277,3.47196444 C5.1930828,3.47196444 5.47413793,3.4166292 5.64849916,3.30385158 C5.82383409,3.19042275 5.95292097,2.99804935 6.0293511,2.72007817 C6.10805302,2.43748168 6.08890495,2.24024032 5.97572002,2.12843332 C5.862454,2.0140314 5.59283955,1.95869864 5.16874209,1.95869864 L4.14042568,1.95869864 L3.71973591,3.47196444 L3.71973591,3.47196444 Z" id="path3364"></path>
                        </g>
                        <g id="g3366" transform="translate(7.847919, 2.135262)">
                            <path d="M7.21109487,0.0570511562 L5.55997907,6.0118589 L3.55381275,6.0118589 L3.79859963,5.13980888 C3.44638871,5.4862583 3.0852528,5.74954638 2.72103355,5.91830797 C2.35851846,6.08909994 1.97815368,6.17364291 1.57685557,6.17364291 C1.24468504,6.17364291 0.96046611,6.11343972 0.730283716,5.9940906 C0.498640438,5.87465731 0.325415732,5.69372335 0.20931028,5.45485924 C0.105456422,5.24561141 0.0613996917,4.98800343 0.0781948803,4.67936363 C0.0960448763,4.37607709 0.204199051,3.86427316 0.403468933,3.14727473 L1.2586408,0.0570511562 L3.45369096,0.0570511562 L2.5994111,3.13242574 C2.47389378,3.58354116 2.44468481,3.89964632 2.50569923,4.07222353 C2.56914763,4.24528605 2.73864028,4.33494212 3.01287972,4.33494212 C3.28874191,4.33494212 3.52152077,4.23441362 3.71405636,4.03035812 C3.90837688,3.8276793 4.05896504,3.52561099 4.17239324,3.12350197 L5.0188026,0.0570511562 L7.21109487,0.0570511562 L7.21109487,0.0570511562 Z" id="path3368"></path>
                        </g>
                        <g id="g3370" transform="translate(14.190239, 0.074945)">
                            <path d="M0.0711354158,8.07220768 L2.31032402,0.00259244625 L5.38724058,0.00259244625 C6.06659189,0.00259244625 6.59332591,0.0435664746 6.96736247,0.131355578 C7.34139903,0.214843748 7.63429968,0.352775773 7.85223047,0.545067465 C8.12549589,0.797237988 8.29336609,1.10936658 8.36225101,1.48510791 C8.42724107,1.85930665 8.38878273,2.29614257 8.2467949,2.80908302 C7.99567919,3.71098949 7.55673427,4.4019446 6.93036501,4.8855956 C6.30237329,5.36299947 5.52460403,5.60202454 4.59697705,5.60202454 L3.15730159,5.60202454 L2.47267702,8.07220768 L0.0711354158,8.07220768 L0.0711354158,8.07220768 Z M3.70318399,3.63099011 L4.47673372,3.63099011 C4.97799144,3.63099011 5.32833602,3.56940774 5.53498986,3.44957085 C5.73450301,3.32932788 5.87640975,3.11374873 5.9624947,2.80908302 C6.04914791,2.49979448 6.0269976,2.28316054 5.89636875,2.16242978 C5.76995912,2.04218681 5.44857993,1.98068615 4.93433985,1.98068615 L4.16200712,1.98068615 C4.16200712,1.98068615 3.70318368,3.63099011 3.70318399,3.63099011 L3.70318399,3.63099011 Z" id="path3372"></path>
                        </g>
                        <g id="g3374" transform="translate(21.216170, 1.941071)">
                            <path d="M3.80338696,6.20608192 L3.82569934,5.64040116 C3.47137885,5.90579886 3.11210907,6.1062034 2.75251482,6.2306656 C2.39292063,6.35869829 2.01190635,6.42368773 1.60314367,6.42368773 C0.979695083,6.42368773 0.546916203,6.254114 0.29588189,5.92721688 C0.0491475781,5.59886011 0.00776840568,5.12997641 0.17693669,4.52916515 C0.339046312,3.93752278 0.626186077,3.50222699 1.04119636,3.22247055 C1.45369141,2.94036185 2.14277864,2.73930733 3.10999969,2.61030155 C3.23243375,2.58969321 3.39584146,2.57346504 3.60200781,2.54880089 C4.3173831,2.46677113 4.71892463,2.27610127 4.80476647,1.96453969 C4.85012144,1.79496596 4.82302208,1.66953066 4.71673401,1.59236885 C4.61434049,1.51285725 4.42383343,1.47391112 4.14918838,1.47391112 C3.92070968,1.47391112 3.73685574,1.5207262 3.58683542,1.61922679 C3.43689628,1.71813098 3.32436077,1.86385025 3.24768737,2.06725951 L1.10837697,2.06725951 C1.30188627,1.39715787 1.69685585,0.890868154 2.28874226,0.551802385 C2.87981723,0.207947895 3.65791062,0.041538572 4.62342768,0.041538572 C5.07673396,0.041538572 5.48249464,0.0843770791 5.84135876,0.176061047 C6.20135878,0.26385015 6.46383348,0.390421963 6.63462436,0.542633493 C6.84436059,0.731760771 6.96849873,0.948637371 7.00460419,1.18750148 C7.04436092,1.42701433 7.00030387,1.76835314 6.87567918,2.21614319 L5.95503009,5.53622294 C5.92509098,5.64510817 5.91892463,5.74190275 5.9354764,5.8304223 C5.95503009,5.9145592 5.99129787,5.98677134 6.05580092,6.03829343 L6.00703826,6.20608192 L3.80338696,6.20608192 L3.80338696,6.20608192 Z M4.33580074,3.54758365 C4.10334639,3.64097116 3.80038492,3.73054303 3.42432006,3.82961065 C2.83283933,3.98766322 2.49920847,4.19878049 2.42821456,4.46125395 C2.37815366,4.62985459 2.39859997,4.7594274 2.48103411,4.85784628 C2.56249453,4.95107036 2.70237275,4.99829151 2.90115569,4.99829151 C3.2660239,4.99829151 3.55884331,4.90677097 3.77726119,4.72494563 C3.99438088,4.54011929 4.15835653,4.25111226 4.27259588,3.85297733 C4.29312325,3.76770391 4.31048634,3.70612154 4.32135854,3.66076735 C4.32135851,3.66076734 4.3358007,3.54758365 4.33580074,3.54758365 L4.33580074,3.54758365 Z" id="path3376"></path>
                        </g>
                        <g id="g3378" transform="translate(27.168511, 2.190069)">
                            <path d="M0.0711354402,8.30443345 L0.558031984,6.54118721 L1.18569929,6.54118721 C1.3962469,6.54118721 1.56152071,6.49972788 1.67778851,6.42443302 C1.79649028,6.34597499 1.877464,6.21348042 1.9241983,6.0355487 C1.94764655,5.95709067 1.9620887,5.87384515 1.97125712,5.78102591 C1.97782908,5.68163393 1.97782908,5.57704963 1.97125712,5.45591404 L1.63640918,0.00228292901 L3.85815356,0.00228292901 L3.82383305,3.61542676 L5.76298155,0.00228292901 L7.82959418,0.00228292901 L4.40046609,5.92836824 C4.011176,6.59084234 3.72833624,7.04642088 3.54870129,7.29445389 C3.37085129,7.53948342 3.20257563,7.72942285 3.04054709,7.85842864 C2.82821439,8.03725298 2.59275812,8.16406868 2.33791019,8.23765876 C2.08192652,8.31319627 1.69223066,8.35108634 1.16971556,8.35108634 C1.01880281,8.35108634 0.845739903,8.34719148 0.658315968,8.33794212 C0.472190191,8.33055848 0.273894061,8.32017384 0.0711354402,8.30443345" id="path3380"></path>
                        </g>
                    </g>
                </g>
            </g>
        </g>
    </g>
</svg>