<?xml version="1.0" encoding="UTF-8"?>
<svg width="28px" height="13px" viewBox="0 0 28 13" version="1.1" xmlns="http://www.w3.org/2000/svg" xmlns:xlink="http://www.w3.org/1999/xlink">
    <!-- Generator: Sketch 39.1 (31720) - http://www.bohemiancoding.com/sketch -->
    <title>verified-by-visa</title>
    <desc>Created with Sketch.</desc>
    <defs></defs>
    <g id="Page-1" stroke="none" stroke-width="1" fill="none" fill-rule="evenodd">
        <g id="icon" transform="translate(-86.000000, -258.000000)">
            <g id="old-icon">
                <g id="verified-by-visa" transform="translate(86.000000, 258.000000)">
                    <g id="Page-1">
                        <g id="Fill-1-+-Fill-2">
                            <path d="M21.0007254,9.98947152 C21.1193989,9.67160621 21.5691399,8.44250778 21.5691399,8.44250778 C21.5610156,8.45803112 21.6865078,8.12304661 21.7589016,7.91573055 L21.8545078,8.39303626 C21.8545078,8.39303626 22.1287046,9.71237309 22.1860104,9.98947152 L21.0007254,9.98947152 L21.0007254,9.98947152 L21.0007254,9.98947152 Z M22.7613886,6.42433161 L21.6582176,6.42433161 C21.3161243,6.42433161 21.0606425,6.52182383 20.9091814,6.88379275 L18.7885803,11.9520829 L20.2888291,11.9520829 C20.2888291,11.9520829 20.5338653,11.2693472 20.5894301,11.1203523 C20.7533679,11.1203523 22.2100933,11.1239793 22.4175544,11.1239793 C22.4618031,11.3169326 22.5910674,11.9520829 22.5910674,11.9520829 L23.9178031,11.9520829 L22.7613886,6.42433161 L22.7613886,6.42433161 L22.7613886,6.42433161 Z M19.0987565,6.55548186 C18.8170156,6.44377202 18.3716269,6.32263213 17.8190259,6.32263213 C16.4053886,6.32263213 15.4143627,7.07340935 15.4046425,8.14814511 C15.3960829,8.9428808 16.1146528,9.38681863 16.6550674,9.65129536 C17.212456,9.92157516 17.3987358,10.0952332 17.3971399,10.337658 C17.3919171,10.7080415 16.9517513,10.8772021 16.5411814,10.8772021 C15.9703005,10.8772021 15.6665078,10.7939275 15.1984871,10.587772 L15.0126425,10.4994197 L14.8122901,11.7380933 C15.1474197,11.8917306 15.764,12.025057 16.4046632,12.0318757 C17.9040415,12.0318757 18.8793989,11.2890777 18.8915855,10.1432539 C18.8972435,9.51245596 18.5156892,9.0342798 17.6912124,8.63952334 C17.1931606,8.38375132 16.8854508,8.2131399 16.8906736,7.9537409 C16.8906736,7.72422798 17.1480415,7.47817616 17.7080415,7.47817616 C18.1759171,7.47106738 18.5122073,7.5776995 18.7775544,7.6908601 L18.903772,7.7542591 L19.0987565,6.55548186 L19.0987565,6.55548186 L19.0987565,6.55548186 Z M12.4897409,11.9501969 L13.3831295,6.41939897 L14.8111295,6.41939897 L13.9177409,11.9501969 L12.4897409,11.9501969 L12.4897409,11.9501969 L12.4897409,11.9501969 Z M11.2916891,6.42404145 L9.8937202,10.1937409 L9.7445803,9.4274404 C9.39653883,8.48893262 8.64300521,7.50370985 7.7651399,7.10373055 L9.044,11.9446839 L10.556,11.9439585 L12.8036891,6.42404145 L11.2916891,6.42404145 L11.2916891,6.42404145 Z M1.97334715,5.08511917 L1.0626943,5.08511917 L0.0123316062,0.349056995 L1.01888083,0.181056995 L1.73759585,3.88692228 L3.56833161,0.229948186 L4.53541969,0.229948186 L1.97334715,5.08511917 L1.97334715,5.08511917 Z M5.43156477,2.1918342 C5.09512954,2.1918342 4.78118135,2.45776166 4.63262176,3.01152332 L5.97778238,3.01152332 C6.00259067,2.48590674 5.83763731,2.1918342 5.43156477,2.1918342 L5.43156477,2.1918342 L5.43156477,2.1918342 Z M6.70940933,3.53699482 L4.53788601,3.53699482 C4.47825906,4.19521243 4.78437305,4.48246632 5.30288083,4.48246632 C5.73753368,4.48246632 6.11952332,4.32128498 6.53081865,4.06203109 L6.52762694,4.72082902 C6.12445596,4.97282902 5.65817617,5.13401036 5.11181347,5.13401036 C4.16590674,5.13401036 3.54134715,4.59475647 3.72907772,3.37552332 C3.89809326,2.27539897 4.65917099,1.61021762 5.54167876,1.61021762 C6.55794819,1.61021762 6.89554404,2.37405181 6.748,3.33345078 C6.73726425,3.40366839 6.7173886,3.48766839 6.70940933,3.53699482 L6.70940933,3.53699482 L6.70940933,3.53699482 Z M8.12536788,3.12352332 L7.82636267,5.06408291 L6.98592746,5.06408291 L7.50661142,1.68014507 L8.22126424,1.68014507 L8.22184454,2.35954404 C8.50663212,1.96739897 8.8931192,1.63807254 9.42308808,1.61021762 L9.42773055,2.4438342 C8.89703626,2.47879793 8.41958551,2.75952332 8.12536788,3.12352332 L8.12536788,3.12352332 L8.12536788,3.12352332 Z M10.4521243,1.11274612 C10.1719793,1.11274612 9.97815546,0.91645596 10.0210984,0.636601036 C10.0653472,0.349056995 10.3209741,0.145948186 10.6014093,0.145948186 C10.8743005,0.145948186 11.0671088,0.349056995 11.0230052,0.636601036 C10.9799171,0.91645596 10.7257409,1.11274612 10.4521243,1.11274612 L10.4521243,1.11274612 L10.4521243,1.11274612 Z M9.4165596,5.06408291 L9.93782384,1.68014507 L10.7782591,1.68014507 L10.25743,5.06408291 L9.4165596,5.06408291 L9.4165596,5.06408291 L9.4165596,5.06408291 Z M13.1063213,0.755274611 C12.8190674,0.755274611 12.6454093,0.88120207 12.5995647,1.18296373 L12.5226736,1.68014507 L13.1672539,1.68014507 L13.1666736,2.36665285 L12.4173472,2.36665285 L12.0018445,5.06408291 L11.168228,5.06408291 L11.5834404,2.36665285 L11.0930777,2.36665285 L11.1988394,1.68014507 L11.6892021,1.68014507 L11.7782798,1.09881865 C11.8939067,0.349056995 12.41343,0.0690569948 13.1069016,0.0690569948 C13.2544456,0.0690569948 13.3639793,0.0828393783 13.4463834,0.097056995 L13.4520415,0.783274611 C13.3706528,0.769347152 13.2464663,0.755274611 13.1063213,0.755274611 L13.1063213,0.755274611 L13.1063213,0.755274611 Z M14.1511709,1.11274612 C13.8710259,1.11274612 13.6772021,0.91645596 13.7201451,0.636601036 C13.7643938,0.349056995 14.0197305,0.145948186 14.3001658,0.145948186 C14.5732021,0.145948186 14.7660103,0.349056995 14.7226321,0.636601036 C14.6792539,0.91645596 14.4244974,1.11274612 14.1511709,1.11274612 L14.1511709,1.11274612 L14.1511709,1.11274612 Z M13.1156062,5.06408291 L13.6368704,1.68014507 L14.4768704,1.68014507 L13.9564767,5.06408291 L13.1156062,5.06408291 L13.1156062,5.06408291 L13.1156062,5.06408291 Z M16.4581969,2.1918342 C16.1220518,2.1918342 15.8076684,2.45776166 15.6604145,3.01152332 L17.0052849,3.01152332 C17.029658,2.48590674 16.8648498,2.1918342 16.4581969,2.1918342 L16.4581969,2.1918342 L16.4581969,2.1918342 Z M17.7373472,3.53699482 L15.5648083,3.53699482 C15.5059067,4.19521243 15.8112954,4.48246632 16.3292228,4.48246632 C16.7640207,4.48246632 17.1464456,4.32128498 17.5574507,4.06203109 L17.5542591,4.72082902 C17.1507979,4.97282902 16.6850984,5.13401036 16.1384456,5.13401036 C15.1922487,5.13401036 14.5688497,4.59475647 14.756,3.37552332 C14.9248704,2.27539897 15.6860933,1.61021762 16.5688912,1.61021762 C17.5853057,1.61021762 17.9227565,2.37405181 17.7750674,3.33345078 C17.7644767,3.40366839 17.7438757,3.48766839 17.7373472,3.53699482 L17.7373472,3.53699482 L17.7373472,3.53699482 Z M20.5076062,2.46472539 C20.313057,2.36665285 20.1591295,2.31776166 19.8715855,2.31776166 C19.4304041,2.31776166 19.053057,2.67494301 18.9384456,3.41759585 C18.8373264,4.07624871 19.0704663,4.38424871 19.4411399,4.38424871 C19.7497202,4.38424871 20.0159378,4.2026114 20.2827358,3.92246632 L20.5076062,2.46472539 L20.5076062,2.46472539 L20.5076062,2.46472539 Z M20.2263005,5.06408291 L20.2286218,4.59475647 C19.9467358,4.88201036 19.5783834,5.13401036 19.1093472,5.13401036 C18.4009326,5.13401036 17.9149223,4.60839378 18.0910466,3.46648705 C18.2844353,2.20547151 19.0645181,1.64547151 19.8486632,1.64547151 C20.171171,1.64547151 20.4218653,1.70147151 20.6142383,1.77110881 L20.8653679,0.138984456 L21.7264041,0.00580310881 L20.9487876,5.06408291 L20.2263005,5.06408291 L20.2263005,5.06408291 L20.2263005,5.06408291 Z M23.9929534,3.01036269 C23.7811399,3.01036269 23.568456,3.15384456 23.3794197,3.34462176 L23.200829,4.50683938 C23.3263213,4.55486011 23.4126425,4.57589637 23.5931192,4.57589637 C23.9964353,4.57589637 24.2780311,4.33158549 24.3682694,3.74808291 C24.4447254,3.25409326 24.2796269,3.01036269 23.9929534,3.01036269 L23.9929534,3.01036269 L23.9929534,3.01036269 Z M23.5236269,5.096 C23.1258238,5.096 22.8012849,5.03202073 22.4995233,4.92567876 L23.0516892,1.33326425 L23.7041036,1.23272539 L23.4657409,2.78737824 C23.6556477,2.61763731 23.9209948,2.44789637 24.2443731,2.44789637 C24.7858031,2.44789637 25.1476269,2.85106736 25.0157513,3.71079793 C24.8708186,4.65525388 24.2878964,5.096 23.5236269,5.096 L23.5236269,5.096 L23.5236269,5.096 Z M26.5161451,5.20205181 C26.1910259,5.83343005 25.8689534,6.02972021 25.3748186,6.02972021 C25.2638342,6.02972021 25.2015959,6.01898445 25.145886,6.00288083 L25.1416787,5.47784456 C25.2229223,5.49917099 25.3111296,5.51527461 25.4329948,5.51527461 C25.6191296,5.51527461 25.780456,5.43011399 25.8889741,5.24412435 L25.9728291,5.07438342 L25.4335752,2.54872539 L26.1103627,2.46370984 L26.4230052,4.2892228 L27.2715647,2.50099482 L27.9032332,2.50099482 L26.5161451,5.20205181 L26.5161451,5.20205181 L26.5161451,5.20205181 Z" id="Fill-1" fill="#00579F"></path>
                            <path d="M8.5971606,6.42186528 L6.29390674,6.42186528 L6.28055959,6.51674612 C8.07125389,6.97475647 9.25276681,8.09954404 9.7445803,9.42976167 L9.24406217,6.88698445 C9.15817616,6.53807254 8.90733676,6.43434197 8.5971606,6.42186528" id="Fill-2" fill="#FAA61A"></path>
                        </g>
                    </g>
                </g>
            </g>
        </g>
    </g>
</svg>